<?xml version="1.0"?>
<svg xmlns:rdf="http://www.w3.org/1999/02/22-rdf-syntax-ns#" xmlns="http://www.w3.org/2000/svg" xmlns:cc="http://creativecommons.org/ns#" xmlns:dc="http://purl.org/dc/elements/1.1/" xmlns:svg="http://www.w3.org/2000/svg" id="svg26938" viewBox="0 0 88 80" version="1.0">
  <g id="layer1">
    <g id="g2392">
      <path id="rect1445" stroke-linejoin="round" d="m81.966 8.0708c-4.64-5.5245-9.989-8.5949-12.452-7.2935 0.005 0.19881-0.048 0.389-0.182 0.5609-0.241 0.3083-0.628 0.3617-0.975 0.2478l-7.61 6.3917c0.395 0.3083 0.462 0.9055 0.153 1.2998-0.308 0.3943-0.881 0.4413-1.275 0.133-0.108-0.0838-0.135-0.2154-0.194-0.3273l-2.584 2.1708c-0.019 0.163-0.024 0.341-0.13 0.477-0.194 0.248-0.486 0.316-0.779 0.287l-9.524 7.999c0.219-0.021 0.444 0.021 0.629 0.166 0.394 0.308 0.461 0.905 0.153 1.3-0.308 0.394-0.881 0.441-1.276 0.133-0.316-0.247-0.352-0.642-0.224-0.996l-2.512 2.111c0.177 0.311 0.235 0.68 0.004 0.976-0.309 0.394-0.882 0.441-1.276 0.133-0.009-0.007-0.012-0.017-0.02-0.024l-7.992 6.713c0.371 0.312 0.438 0.847 0.136 1.232-0.308 0.394-0.885 0.485-1.279 0.177-0.099-0.077-0.117-0.198-0.174-0.303l-2.68 2.251c-0.033 0.109-0.02 0.23-0.094 0.324-0.17 0.218-0.42 0.308-0.671 0.319l-9.308 7.819c0.178 0.013 0.373 0.019 0.52 0.134 0.395 0.308 0.442 0.881 0.133 1.276-0.308 0.394-0.861 0.465-1.255 0.157-0.262-0.205-0.317-0.515-0.284-0.823l-11.773 9.888c0.3481 0.317 0.3879 0.852 0.0932 1.228-0.3082 0.395-0.8614 0.466-1.2557 0.157-0.0899-0.07-0.0975-0.188-0.1532-0.279l-2.321 1.95c0.0837 0.268 0.0763 0.546-0.113 0.788-0.2667 0.341-0.7115 0.396-1.0834 0.217l-1.1486 0.964c-0.68783 0.578-0.86104 1.626-0.76096 2.884 0.01411-0.167 0.01755-0.332 0.13018-0.476 0.30826-0.395 0.86148-0.466 1.2558-0.157 0.3943 0.308 0.4652 0.861 0.1569 1.255-0.3082 0.395-0.8614 0.466-1.2557 0.157-0.16957-0.132-0.26461-0.324-0.31013-0.515 0.19248 1.623 0.90813 3.613 2.1152 5.774 0.3089-0.172 0.6805-0.235 0.9762-0.004 0.3943 0.308 0.4413 0.882 0.1331 1.276-0.0635 0.081-0.1737 0.08-0.2556 0.133 0.7597 1.193 1.5619 2.394 2.5708 3.595 3.6844 4.386 7.8319 7.207 10.633 7.557-0.394-0.309-0.462-0.906-0.153-1.3 0.308-0.395 0.881-0.442 1.276-0.133 0.394 0.308 0.465 0.861 0.157 1.255-0.091 0.116-0.226 0.153-0.352 0.214 0.521-0.053 0.992-0.18 1.351-0.482l2.034-1.708c-0.097-0.032-0.195-0.024-0.281-0.091-0.394-0.308-0.485-0.885-0.177-1.28 0.308-0.394 0.906-0.461 1.3-0.153 0.18 0.141 0.272 0.351 0.306 0.559l2.465-2.07c-0.059-0.266-0.019-0.56 0.157-0.785 0.253-0.323 0.675-0.369 1.039-0.22l12.132-10.19c-0.188-0.308-0.242-0.672-0.004-0.977 0.308-0.394 0.862-0.465 1.256-0.157 0.017 0.014 0.024 0.034 0.04 0.048l8.495-7.135c-0.094-0.032-0.2-0.028-0.281-0.091-0.394-0.308-0.441-0.882-0.133-1.276 0.309-0.394 0.862-0.465 1.256-0.157 0.18 0.141 0.262 0.35 0.306 0.559l2.393-2.01c-0.204-0.323-0.265-0.731-0.02-1.044 0.308-0.394 0.882-0.441 1.276-0.133 0.028 0.021 0.012 0.068 0.036 0.092l8.734-7.337c-0.181-0.005-0.368-0.014-0.52-0.134-0.395-0.308-0.462-0.905-0.154-1.299 0.309-0.395 0.882-0.442 1.276-0.133 0.263 0.205 0.325 0.519 0.284 0.823l2.297-1.93c0.016-0.157 0.002-0.323 0.106-0.456 0.193-0.247 0.48-0.309 0.779-0.287l9.308-7.819c-0.204 0.009-0.408-0.024-0.585-0.162-0.394-0.308-0.465-0.861-0.156-1.256 0.308-0.394 0.885-0.485 1.279-0.177 0.3 0.234 0.333 0.606 0.228 0.952l2.68-2.251c-0.172-0.305-0.215-0.657 0.016-0.953 0.309-0.394 0.886-0.485 1.28-0.177 0.009 0.007 0.012 0.017 0.02 0.024l7.442-6.251c1.297-1.09 0.991-3.687-0.323-6.749-0.243 0.048-0.482 0.019-0.696-0.149-0.395-0.308-0.466-0.861-0.157-1.256 0.035-0.045 0.098-0.04 0.139-0.076-0.96-1.848-2.137-3.76-3.763-5.6952zm1.857 3.1332c0.394 0.309 0.465 0.862 0.157 1.256-0.309 0.394-0.862 0.465-1.256 0.157s-0.485-0.885-0.177-1.28c0.308-0.394 0.881-0.441 1.276-0.133zm-2.846-2.2211c0.395 0.3083 0.465 0.8615 0.157 1.2561-0.308 0.394-0.861 0.465-1.256 0.157-0.394-0.309-0.485-0.8858-0.177-1.2801 0.309-0.3942 0.882-0.4413 1.276-0.133zm-2.845-2.2215c0.394 0.3082 0.465 0.8614 0.157 1.2557-0.309 0.3943-0.862 0.4652-1.256 0.157-0.394-0.3083-0.485-0.8854-0.177-1.2797s0.881-0.4413 1.276-0.133zm-2.822-2.2417c0.394 0.3083 0.441 0.8816 0.133 1.2759s-0.861 0.4652-1.256 0.1569c-0.394-0.3082-0.485-0.8854-0.177-1.2796 0.309-0.3943 0.906-0.4614 1.3-0.1532zm-2.845-2.2215c0.394 0.3083 0.441 0.8816 0.133 1.2759-0.309 0.3942-0.862 0.4652-1.256 0.1569-0.394-0.3082-0.485-0.8854-0.177-1.2797 0.308-0.3942 0.905-0.4614 1.3-0.1531zm13.02 15.55c0.395 0.308 0.462 0.905 0.153 1.3-0.308 0.394-0.881 0.441-1.275 0.133-0.395-0.309-0.466-0.862-0.157-1.256 0.308-0.394 0.885-0.485 1.279-0.177zm-2.845-2.222c0.394 0.309 0.461 0.906 0.153 1.3s-0.862 0.465-1.256 0.157-0.485-0.885-0.177-1.28c0.308-0.394 0.885-0.485 1.28-0.177zm-2.826-2.197c0.395 0.308 0.442 0.881 0.133 1.276-0.308 0.394-0.861 0.465-1.255 0.157-0.395-0.309-0.486-0.886-0.178-1.28 0.309-0.394 0.906-0.461 1.3-0.153zm-2.845-2.222c0.394 0.308 0.465 0.862 0.157 1.256-0.309 0.394-0.886 0.485-1.28 0.177s-0.461-0.905-0.153-1.3c0.308-0.394 0.881-0.441 1.276-0.133zm-2.846-2.2213c0.395 0.3083 0.465 0.8615 0.157 1.2553-0.308 0.395-0.885 0.486-1.28 0.178-0.394-0.309-0.461-0.906-0.153-1.3003 0.309-0.3943 0.882-0.4413 1.276-0.133zm10.713 12.754c0.395 0.308 0.486 0.885 0.177 1.279-0.308 0.395-0.881 0.442-1.276 0.133-0.394-0.308-0.465-0.861-0.156-1.255 0.308-0.395 0.861-0.466 1.255-0.157zm-13.558-14.976c0.394 0.3082 0.465 0.8614 0.157 1.2557-0.309 0.3943-0.886 0.4853-1.28 0.1771-0.394-0.3083-0.461-0.9055-0.153-1.2998s0.881-0.4413 1.276-0.133zm10.653 12.926c0.395 0.309 0.466 0.862 0.157 1.256-0.308 0.394-0.861 0.465-1.255 0.157-0.395-0.308-0.486-0.885-0.177-1.28 0.308-0.394 0.881-0.441 1.275-0.133zm-13.499-15.147c0.394 0.3083 0.465 0.8615 0.157 1.2558s-0.885 0.4853-1.28 0.177c-0.394-0.3082-0.461-0.9055-0.153-1.2997 0.309-0.3943 0.882-0.4413 1.276-0.1331zm10.221 12.799c0.395 0.309 0.486 0.886 0.177 1.28-0.308 0.394-0.905 0.462-1.299 0.153-0.395-0.308-0.442-0.881-0.134-1.276 0.309-0.394 0.862-0.465 1.256-0.157zm-2.845-2.221c0.394 0.308 0.485 0.885 0.177 1.28-0.309 0.394-0.906 0.461-1.3 0.153-0.394-0.309-0.441-0.882-0.133-1.276s0.861-0.465 1.256-0.157zm-2.846-2.222c0.394 0.309 0.485 0.886 0.177 1.28s-0.881 0.441-1.276 0.133c-0.394-0.308-0.465-0.861-0.157-1.256 0.309-0.394 0.862-0.465 1.256-0.157zm-2.845-2.221c0.394 0.308 0.485 0.885 0.177 1.28-0.309 0.394-0.882 0.441-1.276 0.133-0.394-0.309-0.465-0.862-0.157-1.256s0.861-0.465 1.256-0.157zm10.525 12.871c0.394 0.308 0.485 0.885 0.177 1.279s-0.905 0.462-1.3 0.153c-0.394-0.308-0.441-0.881-0.133-1.276 0.309-0.394 0.862-0.465 1.256-0.156zm-13.371-15.093c0.394 0.3083 0.485 0.8854 0.177 1.2797-0.308 0.394-0.881 0.441-1.276 0.133-0.394-0.3082-0.465-0.8614-0.157-1.2557 0.309-0.3943 0.862-0.4652 1.256-0.157zm10.526 12.871c0.394 0.308 0.485 0.885 0.177 1.28-0.309 0.394-0.906 0.461-1.3 0.153s-0.441-0.882-0.133-1.276 0.861-0.465 1.256-0.157zm-13.347-15.112c0.394 0.3082 0.461 0.9055 0.153 1.2998-0.309 0.3943-0.882 0.4413-1.276 0.133-0.394-0.3082-0.465-0.8615-0.157-1.2557 0.308-0.3943 0.885-0.4854 1.28-0.1771zm10.501 12.89c0.394 0.309 0.485 0.886 0.177 1.28s-0.905 0.462-1.3 0.153c-0.394-0.308-0.441-0.881-0.133-1.276 0.309-0.394 0.862-0.465 1.256-0.157zm-2.845-2.221c0.394 0.308 0.485 0.885 0.177 1.28-0.309 0.394-0.906 0.461-1.3 0.153-0.395-0.309-0.442-0.882-0.133-1.276 0.308-0.394 0.861-0.465 1.256-0.157zm-2.846-2.222c0.394 0.309 0.485 0.886 0.177 1.28s-0.882 0.441-1.276 0.133-0.465-0.861-0.157-1.256c0.308-0.394 0.862-0.465 1.256-0.157zm-2.846-2.221c0.395 0.308 0.486 0.885 0.178 1.28-0.309 0.394-0.882 0.441-1.276 0.133-0.395-0.309-0.466-0.862-0.157-1.256 0.308-0.394 0.861-0.465 1.255-0.157zm-2.821-2.242c0.394 0.308 0.461 0.906 0.153 1.3s-0.882 0.441-1.276 0.133-0.465-0.861-0.157-1.256c0.308-0.394 0.886-0.485 1.28-0.177zm12.865 15.803c0.395 0.308 0.466 0.861 0.157 1.255-0.308 0.395-0.885 0.486-1.279 0.177-0.395-0.308-0.465-0.861-0.157-1.255 0.308-0.395 0.885-0.486 1.279-0.177zm-2.845-2.222c0.394 0.308 0.465 0.862 0.157 1.256s-0.886 0.485-1.28 0.177-0.441-0.882-0.133-1.276 0.862-0.465 1.256-0.157zm-2.846-2.221c0.395 0.308 0.466 0.861 0.157 1.255-0.308 0.395-0.885 0.486-1.279 0.177-0.395-0.308-0.442-0.881-0.133-1.276 0.308-0.394 0.861-0.465 1.255-0.156zm-2.845-2.222c0.394 0.308 0.465 0.861 0.157 1.256-0.308 0.394-0.886 0.485-1.28 0.177s-0.441-0.882-0.133-1.276 0.862-0.465 1.256-0.157zm-2.846-2.222c0.395 0.309 0.466 0.862 0.157 1.256-0.308 0.395-0.885 0.486-1.279 0.177-0.395-0.308-0.442-0.881-0.133-1.276 0.308-0.394 0.861-0.465 1.255-0.157zm-2.845-2.221c0.394 0.308 0.465 0.861 0.157 1.256-0.308 0.394-0.862 0.465-1.256 0.157-0.394-0.309-0.465-0.862-0.157-1.256s0.862-0.465 1.256-0.157zm-2.846-2.222c0.395 0.309 0.486 0.886 0.177 1.28-0.308 0.394-0.881 0.441-1.276 0.133-0.394-0.308-0.465-0.861-0.156-1.256 0.308-0.394 0.861-0.465 1.255-0.157zm12.87 15.759c0.394 0.308 0.441 0.881 0.133 1.276-0.309 0.394-0.862 0.465-1.256 0.157-0.394-0.309-0.465-0.862-0.157-1.256s0.885-0.486 1.28-0.177zm-2.846-2.222c0.394 0.308 0.441 0.882 0.133 1.276s-0.861 0.465-1.256 0.157c-0.394-0.308-0.465-0.861-0.157-1.256 0.309-0.394 0.886-0.485 1.28-0.177zm-2.845-2.221c0.394 0.308 0.441 0.881 0.133 1.276-0.309 0.394-0.862 0.465-1.256 0.157-0.394-0.309-0.465-0.862-0.157-1.256 0.308-0.395 0.885-0.486 1.28-0.177zm-2.846-2.222c0.394 0.308 0.465 0.862 0.157 1.256s-0.885 0.485-1.28 0.177c-0.394-0.308-0.441-0.882-0.133-1.276 0.309-0.394 0.862-0.465 1.256-0.157zm-2.845-2.221c0.394 0.308 0.465 0.861 0.157 1.255-0.309 0.395-0.886 0.486-1.28 0.177-0.394-0.308-0.441-0.881-0.133-1.275 0.308-0.395 0.861-0.466 1.256-0.157zm-2.846-2.222c0.394 0.308 0.485 0.885 0.177 1.28-0.308 0.394-0.905 0.461-1.3 0.153-0.394-0.308-0.441-0.882-0.133-1.276 0.309-0.394 0.862-0.465 1.256-0.157zm13.115 16.002c0.394 0.308 0.465 0.861 0.156 1.255-0.308 0.395-0.861 0.466-1.255 0.157-0.395-0.308-0.486-0.885-0.177-1.279 0.308-0.395 0.881-0.442 1.276-0.133zm-15.96-18.223c0.394 0.308 0.485 0.885 0.177 1.279-0.309 0.395-0.906 0.462-1.3 0.153-0.394-0.308-0.441-0.881-0.133-1.275 0.308-0.395 0.861-0.466 1.256-0.157zm13.138 15.981c0.394 0.308 0.441 0.881 0.133 1.276-0.308 0.394-0.862 0.465-1.256 0.157-0.394-0.309-0.465-0.862-0.157-1.256s0.886-0.485 1.28-0.177zm-2.846-2.222c0.395 0.309 0.442 0.882 0.133 1.276-0.308 0.395-0.861 0.465-1.255 0.157-0.395-0.308-0.466-0.861-0.157-1.256 0.308-0.394 0.885-0.485 1.279-0.177zm-2.845-2.221c0.394 0.308 0.441 0.881 0.133 1.276-0.308 0.394-0.862 0.465-1.256 0.157-0.394-0.309-0.465-0.862-0.157-1.256s0.886-0.485 1.28-0.177zm-2.846-2.222c0.395 0.309 0.442 0.882 0.133 1.276-0.308 0.394-0.861 0.465-1.255 0.157-0.395-0.308-0.466-0.861-0.157-1.256 0.308-0.394 0.885-0.485 1.279-0.177zm-2.845-2.221c0.394 0.308 0.465 0.861 0.157 1.256-0.308 0.394-0.886 0.485-1.28 0.177-0.394-0.309-0.465-0.862-0.157-1.256s0.886-0.485 1.28-0.177zm-2.846-2.222c0.395 0.309 0.486 0.886 0.177 1.28-0.308 0.394-0.905 0.461-1.299 0.153-0.395-0.308-0.442-0.882-0.133-1.276 0.308-0.394 0.861-0.465 1.255-0.157zm12.846 15.779c0.394 0.308 0.465 0.861 0.157 1.255-0.309 0.395-0.886 0.486-1.28 0.178-0.394-0.309-0.441-0.882-0.133-1.276 0.308-0.395 0.861-0.466 1.256-0.157zm-15.691-18c0.394 0.308 0.485 0.885 0.177 1.279-0.308 0.395-0.906 0.462-1.3 0.154-0.394-0.309-0.441-0.882-0.133-1.276 0.308-0.395 0.861-0.466 1.256-0.157zm12.845 15.778c0.395 0.308 0.465 0.862 0.157 1.256s-0.861 0.465-1.256 0.157c-0.394-0.308-0.465-0.862-0.157-1.256 0.309-0.394 0.862-0.465 1.256-0.157zm-2.845-2.221c0.394 0.308 0.465 0.861 0.157 1.255-0.309 0.395-0.862 0.466-1.256 0.157-0.394-0.308-0.465-0.861-0.157-1.255 0.308-0.395 0.861-0.466 1.256-0.157zm-2.846-2.222c0.394 0.308 0.465 0.862 0.157 1.256s-0.861 0.465-1.256 0.157c-0.394-0.308-0.465-0.862-0.157-1.256 0.309-0.394 0.862-0.465 1.256-0.157zm-2.821-2.242c0.394 0.309 0.441 0.882 0.133 1.276-0.309 0.395-0.862 0.466-1.256 0.157-0.394-0.308-0.465-0.861-0.157-1.255 0.308-0.395 0.885-0.486 1.28-0.178zm-2.846-2.221c0.394 0.308 0.461 0.905 0.153 1.3-0.308 0.394-0.881 0.441-1.276 0.133-0.394-0.308-0.465-0.862-0.157-1.256 0.309-0.394 0.886-0.485 1.28-0.177zm-2.845-2.222c0.394 0.309 0.461 0.906 0.153 1.3-0.309 0.394-0.882 0.441-1.276 0.133s-0.465-0.861-0.157-1.256c0.308-0.394 0.885-0.485 1.28-0.177zm13.04 15.574c0.395 0.308 0.442 0.882 0.133 1.276-0.308 0.394-0.861 0.465-1.255 0.157-0.395-0.308-0.486-0.886-0.178-1.28 0.309-0.394 0.906-0.461 1.3-0.153zm-2.845-2.221c0.394 0.308 0.441 0.881 0.133 1.275-0.308 0.395-0.862 0.466-1.256 0.157-0.394-0.308-0.465-0.861-0.157-1.255 0.308-0.395 0.885-0.486 1.28-0.177zm-2.846-2.222c0.394 0.308 0.465 0.861 0.157 1.256-0.308 0.394-0.885 0.485-1.28 0.177-0.394-0.308-0.441-0.882-0.133-1.276 0.309-0.394 0.862-0.465 1.256-0.157zm-2.845-2.222c0.394 0.309 0.465 0.862 0.157 1.256-0.309 0.394-0.886 0.486-1.28 0.177-0.394-0.308-0.441-0.881-0.133-1.276 0.308-0.394 0.861-0.465 1.256-0.157zm-2.846-2.221c0.394 0.308 0.465 0.861 0.157 1.256-0.308 0.394-0.885 0.485-1.28 0.177-0.394-0.309-0.441-0.882-0.133-1.276 0.309-0.394 0.862-0.465 1.256-0.157zm-2.845-2.222c0.394 0.309 0.465 0.862 0.157 1.256-0.309 0.394-0.886 0.485-1.28 0.177s-0.441-0.881-0.133-1.276c0.308-0.394 0.861-0.465 1.256-0.157zm10.241 12.824c0.394 0.308 0.465 0.862 0.157 1.256-0.309 0.394-0.886 0.485-1.28 0.177s-0.461-0.906-0.153-1.3 0.882-0.441 1.276-0.133zm-13.087-15.045c0.394 0.308 0.465 0.861 0.157 1.256-0.308 0.394-0.861 0.465-1.256 0.157-0.394-0.309-0.465-0.862-0.157-1.256 0.309-0.394 0.862-0.465 1.256-0.157zm10.241 12.824c0.395 0.308 0.465 0.861 0.157 1.255-0.308 0.395-0.885 0.486-1.279 0.177-0.395-0.308-0.462-0.905-0.154-1.299 0.309-0.395 0.882-0.442 1.276-0.133zm-2.845-2.222c0.394 0.308 0.465 0.862 0.157 1.256-0.309 0.394-0.862 0.465-1.256 0.157s-0.485-0.886-0.177-1.28 0.881-0.441 1.276-0.133zm-2.846-2.221c0.394 0.308 0.465 0.861 0.157 1.255-0.308 0.395-0.861 0.466-1.256 0.157-0.394-0.308-0.485-0.885-0.177-1.279 0.309-0.395 0.882-0.442 1.276-0.133zm-2.845-2.222c0.394 0.308 0.465 0.861 0.157 1.256-0.309 0.394-0.862 0.465-1.256 0.157-0.394-0.309-0.485-0.886-0.177-1.28s0.881-0.441 1.276-0.133zm10.397 12.815c0.394 0.308 0.465 0.862 0.157 1.256s-0.862 0.465-1.256 0.157-0.485-0.886-0.177-1.28 0.882-0.441 1.276-0.133zm-13.219-15.057c0.394 0.309 0.441 0.882 0.133 1.276-0.308 0.395-0.861 0.465-1.256 0.157-0.394-0.308-0.485-0.885-0.177-1.28 0.309-0.394 0.906-0.461 1.3-0.153zm10.397 12.816c0.395 0.308 0.442 0.881 0.133 1.275-0.308 0.395-0.861 0.466-1.255 0.157-0.395-0.308-0.486-0.885-0.178-1.279 0.309-0.395 0.906-0.462 1.3-0.153zm-13.242-15.037c0.394 0.308 0.441 0.881 0.133 1.276-0.309 0.394-0.862 0.465-1.256 0.157-0.394-0.309-0.485-0.886-0.177-1.28s0.905-0.461 1.3-0.153zm10.397 12.815c0.394 0.308 0.441 0.882 0.133 1.276s-0.862 0.465-1.256 0.157-0.485-0.886-0.177-1.28 0.905-0.461 1.3-0.153zm-2.846-2.222c0.395 0.309 0.441 0.882 0.133 1.276-0.308 0.395-0.861 0.466-1.256 0.157-0.394-0.308-0.485-0.885-0.177-1.279 0.309-0.395 0.906-0.462 1.3-0.154zm-2.845-2.221c0.394 0.308 0.441 0.881 0.133 1.276-0.309 0.394-0.862 0.465-1.256 0.157-0.394-0.309-0.485-0.886-0.177-1.28s0.905-0.461 1.3-0.153zm-2.846-2.222c0.394 0.309 0.465 0.862 0.157 1.256s-0.885 0.485-1.28 0.177c-0.394-0.308-0.465-0.861-0.157-1.256 0.309-0.394 0.886-0.485 1.28-0.177zm-2.845-2.221c0.394 0.308 0.465 0.861 0.157 1.256-0.309 0.394-0.886 0.485-1.28 0.177-0.394-0.309-0.441-0.882-0.133-1.276s0.861-0.465 1.256-0.157zm12.845 15.778c0.394 0.309 0.485 0.886 0.177 1.28s-0.881 0.441-1.276 0.133c-0.394-0.308-0.465-0.861-0.157-1.256 0.309-0.394 0.862-0.465 1.256-0.157zm-15.691-18c0.394 0.309 0.465 0.862 0.157 1.256s-0.885 0.485-1.28 0.177c-0.394-0.308-0.441-0.881-0.133-1.276 0.309-0.394 0.862-0.465 1.256-0.157zm12.866 15.803c0.394 0.308 0.465 0.861 0.157 1.255-0.309 0.395-0.862 0.466-1.256 0.157-0.394-0.308-0.485-0.885-0.177-1.279 0.308-0.395 0.881-0.442 1.276-0.133zm-2.822-2.242c0.394 0.308 0.441 0.882 0.133 1.276s-0.861 0.465-1.256 0.157c-0.394-0.308-0.485-0.886-0.177-1.28 0.309-0.394 0.906-0.461 1.3-0.153zm-2.845-2.221c0.394 0.308 0.441 0.881 0.133 1.275-0.309 0.395-0.862 0.466-1.256 0.157-0.394-0.308-0.485-0.885-0.177-1.279 0.308-0.395 0.905-0.462 1.3-0.153zm-2.846-2.222c0.394 0.308 0.441 0.882 0.133 1.276s-0.861 0.465-1.256 0.157c-0.394-0.308-0.485-0.886-0.177-1.28 0.309-0.394 0.906-0.461 1.3-0.153zm-2.845-2.222c0.394 0.309 0.441 0.882 0.133 1.276-0.309 0.395-0.862 0.466-1.256 0.157-0.395-0.308-0.486-0.885-0.177-1.279 0.308-0.395 0.905-0.462 1.3-0.154zm-2.846-2.221c0.394 0.308 0.465 0.861 0.157 1.256-0.308 0.394-0.885 0.485-1.28 0.177-0.394-0.309-0.485-0.886-0.177-1.28s0.906-0.461 1.3-0.153zm12.845 15.778c0.395 0.309 0.466 0.862 0.157 1.256-0.308 0.394-0.885 0.485-1.279 0.177-0.395-0.308-0.462-0.905-0.153-1.3 0.308-0.394 0.881-0.441 1.275-0.133zm-2.845-2.221c0.394 0.308 0.465 0.861 0.157 1.256-0.308 0.394-0.886 0.485-1.28 0.177-0.394-0.309-0.461-0.906-0.153-1.3s0.882-0.441 1.276-0.133zm-2.846-2.222c0.395 0.309 0.466 0.862 0.157 1.256-0.308 0.394-0.861 0.465-1.255 0.157-0.395-0.308-0.486-0.885-0.177-1.28 0.308-0.394 0.881-0.441 1.275-0.133zm-2.845-2.221c0.394 0.308 0.465 0.861 0.157 1.256-0.308 0.394-0.862 0.465-1.256 0.156-0.394-0.308-0.485-0.885-0.177-1.279s0.882-0.441 1.276-0.133zm-2.846-2.222c0.395 0.308 0.466 0.862 0.157 1.256-0.308 0.394-0.861 0.465-1.255 0.157-0.395-0.308-0.486-0.885-0.177-1.28 0.308-0.394 0.881-0.441 1.275-0.133zm-2.821-2.241c0.394 0.308 0.441 0.881 0.133 1.275-0.308 0.395-0.862 0.466-1.256 0.157-0.394-0.308-0.485-0.885-0.177-1.279 0.308-0.395 0.905-0.462 1.3-0.153zm-2.846-2.222c0.395 0.308 0.442 0.882 0.133 1.276-0.308 0.394-0.861 0.465-1.255 0.157-0.395-0.308-0.486-0.886-0.178-1.28 0.309-0.394 0.906-0.461 1.3-0.153zm13.095 15.978c0.394 0.308 0.485 0.885 0.177 1.279-0.309 0.395-0.886 0.486-1.28 0.177-0.394-0.308-0.461-0.905-0.153-1.299 0.308-0.395 0.861-0.466 1.256-0.157zm-2.826-2.198c0.394 0.308 0.465 0.861 0.157 1.256-0.308 0.394-0.885 0.485-1.28 0.177-0.394-0.308-0.461-0.906-0.153-1.3 0.309-0.394 0.882-0.441 1.276-0.133zm-2.845-2.222c0.394 0.309 0.465 0.862 0.157 1.256-0.309 0.395-0.886 0.486-1.28 0.177-0.394-0.308-0.461-0.905-0.153-1.299 0.308-0.395 0.881-0.442 1.276-0.134zm-2.846-2.221c0.394 0.308 0.465 0.861 0.157 1.256-0.308 0.394-0.885 0.485-1.28 0.177-0.394-0.308-0.461-0.906-0.153-1.3s0.882-0.441 1.276-0.133zm-2.845-2.222c0.394 0.309 0.465 0.862 0.157 1.256-0.309 0.394-0.862 0.465-1.256 0.157-0.395-0.308-0.486-0.885-0.177-1.28 0.308-0.394 0.881-0.441 1.276-0.133zm-2.846-2.221c0.394 0.308 0.465 0.861 0.157 1.256-0.308 0.394-0.861 0.465-1.256 0.157-0.394-0.309-0.485-0.886-0.177-1.28s0.882-0.441 1.276-0.133zm12.869 15.758c0.395 0.309 0.442 0.882 0.133 1.276-0.308 0.394-0.861 0.465-1.255 0.157-0.395-0.308-0.486-0.885-0.177-1.28 0.308-0.394 0.905-0.461 1.299-0.153zm-15.691-18c0.395 0.309 0.442 0.882 0.133 1.276-0.308 0.394-0.861 0.465-1.255 0.157-0.395-0.308-0.486-0.885-0.177-1.28 0.308-0.394 0.905-0.461 1.299-0.153zm12.846 15.779c0.394 0.308 0.441 0.881 0.133 1.276-0.308 0.394-0.862 0.465-1.256 0.157-0.394-0.309-0.485-0.886-0.177-1.28s0.906-0.462 1.3-0.153zm-2.846-2.222c0.395 0.308 0.442 0.882 0.133 1.276-0.308 0.394-0.861 0.465-1.255 0.157-0.395-0.308-0.486-0.885-0.177-1.28 0.308-0.394 0.905-0.461 1.299-0.153zm-2.845-2.221c0.394 0.308 0.465 0.861 0.157 1.255-0.308 0.395-0.886 0.486-1.28 0.177-0.394-0.308-0.461-0.905-0.153-1.299 0.308-0.395 0.882-0.442 1.276-0.133zm-2.846-2.222c0.395 0.308 0.466 0.862 0.157 1.256-0.308 0.394-0.885 0.485-1.279 0.177-0.395-0.308-0.462-0.906-0.154-1.3 0.309-0.394 0.882-0.441 1.276-0.133zm-2.845-2.221c0.394 0.308 0.465 0.861 0.157 1.255-0.308 0.395-0.886 0.486-1.28 0.177-0.394-0.308-0.461-0.905-0.153-1.299 0.308-0.395 0.882-0.442 1.276-0.133zm-2.846-2.222c0.395 0.308 0.466 0.862 0.157 1.256-0.308 0.394-0.885 0.485-1.279 0.177-0.395-0.308-0.462-0.906-0.154-1.3 0.309-0.394 0.882-0.441 1.276-0.133zm13.021 15.55c0.394 0.308 0.485 0.885 0.177 1.279-0.308 0.395-0.906 0.462-1.3 0.154-0.394-0.309-0.441-0.882-0.133-1.276 0.308-0.395 0.862-0.466 1.256-0.157zm-15.866-17.771c0.394 0.308 0.465 0.861 0.157 1.255-0.309 0.395-0.862 0.465-1.256 0.157s-0.485-0.885-0.177-1.279c0.308-0.395 0.881-0.442 1.276-0.133zm13.02 15.549c0.395 0.308 0.486 0.886 0.177 1.28-0.308 0.394-0.881 0.441-1.275 0.133-0.395-0.308-0.466-0.862-0.157-1.256 0.308-0.394 0.861-0.465 1.255-0.157zm-2.845-2.221c0.394 0.308 0.485 0.885 0.177 1.279-0.308 0.395-0.862 0.466-1.256 0.157-0.394-0.308-0.485-0.885-0.177-1.279 0.308-0.395 0.862-0.466 1.256-0.157zm-2.802-2.218c0.395 0.308 0.442 0.882 0.133 1.276-0.308 0.394-0.861 0.465-1.255 0.157-0.395-0.308-0.486-0.886-0.177-1.28 0.308-0.394 0.905-0.461 1.299-0.153zm-2.845-2.222c0.394 0.309 0.441 0.882 0.133 1.276-0.308 0.395-0.862 0.466-1.256 0.157-0.394-0.308-0.485-0.885-0.177-1.279 0.308-0.395 0.906-0.462 1.3-0.154zm-2.846-2.221c0.395 0.308 0.442 0.881 0.133 1.276-0.308 0.394-0.861 0.465-1.255 0.157-0.395-0.309-0.486-0.886-0.177-1.28 0.308-0.394 0.905-0.461 1.299-0.153zm10.221 12.8c0.395 0.308 0.462 0.905 0.154 1.3-0.309 0.394-0.882 0.441-1.276 0.133-0.395-0.309-0.466-0.862-0.157-1.256 0.308-0.394 0.885-0.486 1.279-0.177zm-13.066-15.022c0.394 0.309 0.441 0.882 0.133 1.276-0.308 0.395-0.862 0.465-1.256 0.157s-0.485-0.885-0.177-1.28c0.308-0.394 0.906-0.461 1.3-0.153zm10.221 12.8c0.394 0.308 0.461 0.906 0.153 1.3s-0.882 0.441-1.276 0.133-0.465-0.861-0.157-1.256c0.308-0.394 0.886-0.485 1.28-0.177zm-2.846-2.221c0.395 0.308 0.462 0.905 0.153 1.299-0.308 0.395-0.881 0.442-1.275 0.133-0.395-0.308-0.466-0.861-0.157-1.255 0.308-0.395 0.885-0.486 1.279-0.177zm-2.845-2.222c0.394 0.308 0.461 0.906 0.153 1.3s-0.882 0.441-1.276 0.133-0.465-0.862-0.157-1.256 0.886-0.485 1.28-0.177zm-2.846-2.221c0.395 0.308 0.486 0.885 0.177 1.279-0.308 0.395-0.905 0.462-1.299 0.153-0.395-0.308-0.442-0.881-0.133-1.275 0.308-0.395 0.861-0.466 1.255-0.157zm10.533 12.782c0.395 0.308 0.466 0.862 0.157 1.256-0.308 0.394-0.861 0.465-1.255 0.157-0.395-0.308-0.466-0.862-0.157-1.256 0.308-0.394 0.861-0.465 1.255-0.157zm-13.378-15.004c0.394 0.308 0.485 0.885 0.177 1.28-0.308 0.394-0.906 0.461-1.3 0.153s-0.441-0.882-0.133-1.276 0.861-0.465 1.256-0.157zm10.557 12.763c0.394 0.308 0.441 0.881 0.133 1.275-0.308 0.395-0.862 0.466-1.256 0.157-0.394-0.308-0.465-0.861-0.157-1.255 0.308-0.395 0.885-0.486 1.28-0.177zm-13.403-14.984c0.395 0.308 0.486 0.885 0.177 1.279-0.308 0.395-0.905 0.462-1.3 0.153-0.394-0.308-0.441-0.881-0.133-1.276 0.309-0.394 0.862-0.465 1.256-0.156zm10.557 12.762c0.395 0.308 0.442 0.882 0.133 1.276-0.308 0.394-0.861 0.465-1.255 0.157-0.395-0.308-0.466-0.862-0.157-1.256 0.308-0.394 0.885-0.485 1.279-0.177zm-2.845-2.221c0.394 0.308 0.441 0.881 0.133 1.275-0.309 0.395-0.862 0.466-1.256 0.157-0.394-0.308-0.465-0.861-0.157-1.255 0.308-0.395 0.885-0.486 1.28-0.177zm-2.846-2.222c0.394 0.308 0.462 0.905 0.153 1.3-0.308 0.394-0.881 0.441-1.276 0.133-0.394-0.308-0.465-0.862-0.156-1.256 0.308-0.394 0.885-0.485 1.279-0.177zm-2.845-2.222c0.394 0.309 0.485 0.886 0.177 1.28-0.309 0.394-0.906 0.462-1.3 0.153-0.394-0.308-0.465-0.861-0.157-1.256 0.308-0.394 0.885-0.485 1.28-0.177zm-2.846-2.221c0.394 0.308 0.485 0.885 0.177 1.28-0.308 0.394-0.905 0.461-1.3 0.153-0.394-0.309-0.441-0.882-0.133-1.276 0.309-0.394 0.862-0.465 1.256-0.157zm12.866 15.802c0.394 0.309 0.465 0.862 0.157 1.256-0.309 0.394-0.862 0.465-1.256 0.157s-0.485-0.885-0.177-1.28c0.308-0.394 0.881-0.441 1.276-0.133zm-15.711-18.024c0.394 0.309 0.485 0.886 0.177 1.28-0.309 0.394-0.906 0.461-1.3 0.153s-0.441-0.881-0.133-1.276c0.308-0.394 0.861-0.465 1.256-0.157zm12.865 15.803c0.394 0.308 0.465 0.861 0.157 1.256-0.308 0.394-0.861 0.465-1.256 0.156-0.394-0.308-0.485-0.885-0.177-1.279 0.309-0.395 0.882-0.442 1.276-0.133zm-2.821-2.242c0.394 0.308 0.441 0.882 0.133 1.276-0.309 0.394-0.862 0.465-1.256 0.157s-0.485-0.885-0.177-1.28c0.308-0.394 0.905-0.461 1.3-0.153zm-2.846-2.221c0.394 0.308 0.441 0.881 0.133 1.275-0.308 0.395-0.861 0.466-1.256 0.157-0.394-0.308-0.485-0.885-0.177-1.279 0.309-0.395 0.906-0.462 1.3-0.153zm-2.845-2.222c0.394 0.308 0.441 0.882 0.133 1.276-0.309 0.394-0.862 0.465-1.256 0.157s-0.485-0.886-0.177-1.28 0.905-0.461 1.3-0.153zm-2.846-2.221c0.394 0.308 0.441 0.881 0.133 1.275-0.308 0.395-0.861 0.466-1.256 0.157-0.394-0.308-0.465-0.861-0.157-1.255 0.309-0.395 0.886-0.486 1.28-0.177zm-2.846-2.222c0.395 0.308 0.466 0.861 0.157 1.256-0.308 0.394-0.885 0.485-1.279 0.177-0.395-0.308-0.465-0.862-0.157-1.256s0.885-0.485 1.279-0.177zm12.846 15.778c0.394 0.309 0.465 0.862 0.157 1.256s-0.885 0.486-1.28 0.177c-0.394-0.308-0.461-0.905-0.153-1.3 0.308-0.394 0.882-0.441 1.276-0.133zm-15.691-18c0.394 0.309 0.465 0.862 0.157 1.256-0.308 0.395-0.885 0.486-1.28 0.177-0.3941-0.308-0.441-0.881-0.133-1.276 0.308-0.394 0.862-0.465 1.256-0.157zm12.845 15.779c0.395 0.308 0.466 0.861 0.157 1.256-0.308 0.394-0.885 0.485-1.279 0.177-0.395-0.309-0.462-0.906-0.153-1.3 0.308-0.394 0.881-0.441 1.275-0.133zm-2.845-2.222c0.394 0.309 0.465 0.862 0.157 1.256s-0.862 0.465-1.256 0.157-0.485-0.885-0.177-1.28c0.308-0.394 0.882-0.441 1.276-0.133zm-2.846-2.221c0.395 0.308 0.466 0.861 0.157 1.256-0.308 0.394-0.861 0.465-1.255 0.157-0.395-0.309-0.466-0.862-0.157-1.256 0.308-0.394 0.861-0.465 1.255-0.157zm-2.845-2.222c0.394 0.309 0.465 0.862 0.157 1.256s-0.862 0.465-1.256 0.157-0.465-0.861-0.157-1.256c0.308-0.394 0.862-0.465 1.256-0.157zm-2.822-2.241c0.395 0.308 0.442 0.881 0.133 1.276-0.308 0.394-0.861 0.465-1.255 0.156-0.395-0.308-0.466-0.861-0.157-1.255 0.308-0.395 0.885-0.486 1.279-0.177zm-2.8453-2.222c0.3943 0.308 0.4413 0.882 0.1333 1.276-0.3085 0.394-0.8617 0.465-1.256 0.157s-0.4652-0.862-0.1569-1.256c0.3082-0.394 0.8854-0.485 1.2796-0.177zm13.114 16.002c0.394 0.308 0.465 0.861 0.157 1.255-0.308 0.395-0.885 0.486-1.28 0.177-0.394-0.308-0.461-0.905-0.153-1.299 0.309-0.395 0.882-0.442 1.276-0.133zm-2.845-2.222c0.394 0.308 0.465 0.862 0.157 1.256-0.309 0.394-0.886 0.485-1.28 0.177s-0.461-0.906-0.153-1.3 0.881-0.441 1.276-0.133zm-2.846-2.221c0.394 0.308 0.465 0.861 0.157 1.255-0.308 0.395-0.885 0.486-1.28 0.177-0.394-0.308-0.461-0.905-0.153-1.299 0.309-0.395 0.882-0.442 1.276-0.133zm-2.845-2.222c0.394 0.308 0.465 0.861 0.157 1.256-0.309 0.394-0.886 0.485-1.28 0.177s-0.462-0.906-0.153-1.3c0.308-0.394 0.881-0.441 1.276-0.133zm-2.846-2.222c0.394 0.309 0.465 0.862 0.157 1.256-0.308 0.395-0.861 0.465-1.256 0.157-0.394-0.308-0.465-0.861-0.157-1.256 0.309-0.394 0.862-0.465 1.256-0.157zm-2.8455-2.221c0.3943 0.308 0.4653 0.861 0.157 1.256-0.3083 0.394-0.8615 0.465-1.2558 0.157-0.3942-0.309-0.4652-0.862-0.1569-1.256 0.3082-0.394 0.8615-0.465 1.2557-0.157zm-2.8216-2.242c0.3943 0.309 0.4413 0.882 0.1331 1.276-0.3083 0.394-0.8615 0.465-1.2558 0.157s-0.4652-0.861-0.1569-1.256c0.3082-0.394 0.8854-0.485 1.2796-0.177zm12.845 15.779c0.395 0.308 0.442 0.881 0.133 1.276-0.308 0.394-0.861 0.465-1.255 0.157-0.395-0.309-0.486-0.886-0.177-1.28 0.308-0.394 0.905-0.461 1.299-0.153zm-2.845-2.222c0.394 0.308 0.441 0.882 0.133 1.276s-0.862 0.465-1.256 0.157-0.485-0.885-0.177-1.28c0.308-0.394 0.906-0.461 1.3-0.153zm-2.846-2.221c0.395 0.308 0.466 0.861 0.157 1.255-0.308 0.395-0.885 0.486-1.279 0.178-0.395-0.309-0.462-0.906-0.153-1.3 0.308-0.395 0.881-0.442 1.275-0.133zm-2.845-2.222c0.394 0.308 0.465 0.862 0.157 1.256s-0.8856 0.485-1.2799 0.177-0.4413-0.882-0.133-1.276c0.3082-0.394 0.8615-0.465 1.2559-0.157zm-2.8457-2.221c0.3943 0.308 0.4652 0.861 0.157 1.255-0.3083 0.395-0.8854 0.486-1.2797 0.177-0.3943-0.308-0.4413-0.881-0.133-1.275 0.3082-0.395 0.8614-0.466 1.2557-0.157zm-2.8455-2.222c0.3943 0.308 0.4652 0.862 0.157 1.256-0.3083 0.394-0.8854 0.485-1.2797 0.177s-0.4413-0.882-0.1331-1.276c0.3083-0.394 0.8615-0.465 1.2558-0.157zm10.195 13.352c0.394 0.308 0.465 0.862 0.157 1.256s-0.862 0.465-1.256 0.157-0.485-0.885-0.177-1.28c0.308-0.394 0.882-0.441 1.276-0.133zm-2.846-2.221c0.395 0.308 0.466 0.861 0.157 1.255-0.308 0.395-0.861 0.466-1.255 0.157-0.395-0.308-0.486-0.885-0.177-1.279 0.308-0.395 0.881-0.442 1.275-0.133zm-2.845-2.222c0.3942 0.308 0.4652 0.862 0.1569 1.256s-0.8615 0.465-1.2557 0.157c-0.3943-0.308-0.4853-0.886-0.1771-1.28 0.3083-0.394 0.8816-0.441 1.2759-0.133zm-2.8216-2.242c0.3943 0.309 0.4412 0.882 0.133 1.276-0.3083 0.395-0.8615 0.466-1.2558 0.157-0.3942-0.308-0.4853-0.885-0.177-1.279 0.3082-0.395 0.9055-0.462 1.2998-0.154z" stroke="#925e4b" stroke-linecap="round" stroke-width=".2" fill="#db9275"/>
      <path id="rect2963" d="m58.299-26.092h1.14c5.176 0 9.344 1.126 9.344 2.525v27.272c0 1.3995-4.168 2.5258-9.344 2.5258h-1.14c-5.176 0-9.344-1.1263-9.344-2.5254v-27.272c0-1.399 4.168-2.525 9.344-2.525z" fill="#c47f67" transform="matrix(.64318 .76571 -.76571 .64318 0 0)"/>
      <path id="rect25394" d="m58.445 29.044c-0.394-0.309-0.947-0.238-1.255 0.157-0.309 0.394-0.238 0.947 0.156 1.255 0.395 0.309 0.948 0.238 1.256-0.157 0.309-0.394 0.238-0.947-0.157-1.255zm1.614 2.358c-0.007 0.008-0.017 0.012-0.024 0.02-0.308 0.394-0.237 0.948 0.157 1.256 0.242 0.189 0.52 0.197 0.789 0.113-0.253-0.44-0.609-0.919-0.922-1.389zm-4.435-4.6c-0.395-0.308-0.972-0.217-1.28 0.177s-0.237 0.948 0.157 1.256 0.947 0.237 1.256-0.157c0.308-0.394 0.261-0.968-0.133-1.276zm-2.846-2.221c-0.394-0.309-0.971-0.218-1.28 0.177-0.308 0.394-0.237 0.947 0.157 1.255 0.395 0.309 0.968 0.262 1.276-0.133 0.309-0.394 0.241-0.991-0.153-1.299zm-2.845-2.222c-0.089-0.069-0.203-0.041-0.305-0.071-0.01 0.008-0.034-0.012-0.044-0.004l-1.1 0.925c0.034 0.215 0.137 0.435 0.326 0.583 0.394 0.308 0.968 0.261 1.276-0.133s0.241-0.992-0.153-1.3zm10.195 13.352c-0.394-0.308-0.972-0.217-1.28 0.177s-0.237 0.948 0.157 1.256 0.948 0.237 1.256-0.157 0.261-0.968-0.133-1.276zm-2.846-2.221c-0.394-0.309-0.947-0.238-1.255 0.157-0.309 0.394-0.262 0.967 0.133 1.275 0.394 0.309 0.971 0.218 1.279-0.177 0.309-0.394 0.238-0.947-0.157-1.255zm-2.845-2.222c-0.394-0.308-0.948-0.237-1.256 0.157s-0.261 0.968 0.133 1.276 0.972 0.217 1.28-0.177 0.237-0.948-0.157-1.256zm-2.846-2.222c-0.394-0.308-0.947-0.237-1.255 0.157-0.309 0.395-0.262 0.968 0.133 1.276 0.394 0.309 0.971 0.218 1.279-0.177 0.308-0.394 0.238-0.947-0.157-1.256zm-2.845-2.221c-0.395-0.308-0.948-0.237-1.256 0.157s-0.261 0.968 0.133 1.276 0.971 0.217 1.28-0.177c0.308-0.395 0.237-0.948-0.157-1.256zm10.241 12.824c-0.394-0.309-0.968-0.262-1.276 0.133-0.308 0.394-0.241 0.991 0.153 1.3 0.032 0.025 0.074 0.011 0.108 0.031l1.245-1.045c-0.056-0.155-0.089-0.309-0.23-0.419zm-12.801-14.511l-1.124 0.945c0.354 0.128 0.748 0.092 0.995-0.224 0.168-0.215 0.178-0.476 0.129-0.721zm9.955 12.289c-0.394-0.308-0.967-0.261-1.275 0.133-0.309 0.394-0.242 0.992 0.153 1.3 0.394 0.308 0.971 0.217 1.279-0.177 0.309-0.394 0.238-0.948-0.157-1.256zm-2.845-2.221c-0.394-0.309-0.968-0.262-1.276 0.133-0.308 0.394-0.217 0.971 0.177 1.279 0.394 0.309 0.948 0.238 1.256-0.157 0.308-0.394 0.237-0.947-0.157-1.255zm-2.846-2.222c-0.394-0.308-0.967-0.261-1.276 0.133-0.308 0.394-0.217 0.972 0.178 1.28 0.394 0.308 0.947 0.237 1.255-0.157 0.309-0.394 0.238-0.948-0.157-1.256zm-2.845-2.221c-0.394-0.309-0.968-0.262-1.276 0.133-0.308 0.394-0.217 0.971 0.177 1.279 0.394 0.309 0.948 0.238 1.256-0.157 0.308-0.394 0.237-0.947-0.157-1.255zm-2.822-2.242c-0.394-0.308-0.991-0.241-1.3 0.153-0.308 0.394-0.217 0.972 0.177 1.28 0.395 0.308 0.948 0.237 1.256-0.157s0.262-0.968-0.133-1.276zm10.397 12.815c-0.394-0.308-0.991-0.241-1.299 0.153-0.309 0.395-0.218 0.972 0.177 1.28 0.394 0.308 0.947 0.237 1.255-0.157 0.309-0.394 0.262-0.968-0.133-1.276zm-2.845-2.221c-0.394-0.309-0.992-0.242-1.3 0.153-0.308 0.394-0.217 0.971 0.177 1.279 0.394 0.309 0.948 0.238 1.256-0.157 0.308-0.394 0.261-0.967-0.133-1.275zm-2.846-2.222c-0.394-0.308-0.991-0.241-1.299 0.153-0.309 0.394-0.218 0.972 0.177 1.28 0.394 0.308 0.947 0.237 1.255-0.157 0.309-0.394 0.262-0.968-0.133-1.276zm-2.845-2.221c-0.394-0.309-0.992-0.242-1.3 0.153-0.308 0.394-0.217 0.971 0.177 1.279 0.394 0.309 0.948 0.238 1.256-0.157 0.308-0.394 0.261-0.967-0.133-1.275zm-2.846-2.222c-0.394-0.308-0.971-0.217-1.279 0.177-0.309 0.394-0.238 0.948 0.157 1.256 0.394 0.308 0.971 0.217 1.279-0.177 0.308-0.395 0.238-0.948-0.157-1.256zm-2.845-2.222c-0.185-0.144-0.392-0.201-0.605-0.185l-0.742 0.623c-0.126 0.355-0.088 0.752 0.224 0.995 0.394 0.309 0.971 0.217 1.28-0.177 0.308-0.394 0.237-0.947-0.157-1.256zm10.02 13.581c-0.394-0.308-0.968-0.261-1.276 0.133-0.308 0.395-0.217 0.972 0.177 1.28s0.948 0.237 1.256-0.157 0.237-0.947-0.157-1.256zm-2.822-2.241c-0.394-0.309-0.991-0.242-1.3 0.153-0.308 0.394-0.217 0.971 0.177 1.279 0.395 0.309 0.948 0.238 1.256-0.156 0.309-0.395 0.262-0.968-0.133-1.276zm-2.845-2.222c-0.395-0.308-0.992-0.241-1.3 0.153-0.308 0.395-0.217 0.972 0.177 1.28s0.947 0.237 1.256-0.157c0.308-0.394 0.261-0.968-0.133-1.276zm-2.846-2.221c-0.394-0.309-0.991-0.242-1.3 0.153-0.308 0.394-0.217 0.971 0.177 1.279 0.395 0.309 0.948 0.238 1.256-0.157 0.308-0.394 0.261-0.967-0.133-1.275zm-2.845-2.222c-0.395-0.308-0.992-0.241-1.3 0.153s-0.217 0.972 0.177 1.28 0.947 0.237 1.256-0.157c0.308-0.394 0.261-0.968-0.133-1.276zm-2.713-1.966l-1.292 1.085c0.025 0.025 0.009 0.071 0.036 0.092 0.395 0.309 0.972 0.218 1.28-0.177 0.242-0.309 0.174-0.69-0.024-1zm12.432 15.432c-0.355-0.126-0.752-0.088-0.995 0.224-0.168 0.214-0.2 0.485-0.153 0.741l1.148-0.965zm-2.565-2.131c-0.394-0.308-0.968-0.261-1.276 0.133-0.308 0.395-0.241 0.992 0.153 1.3 0.395 0.309 0.972 0.217 1.28-0.177s0.237-0.947-0.157-1.256zm-2.845-2.221c-0.395-0.308-0.968-0.261-1.276 0.133-0.309 0.394-0.218 0.971 0.177 1.28 0.394 0.308 0.947 0.237 1.255-0.157 0.309-0.395 0.238-0.948-0.156-1.256zm-2.846-2.222c-0.394-0.308-0.968-0.261-1.276 0.133-0.308 0.395-0.217 0.972 0.177 1.28s0.948 0.237 1.256-0.157 0.237-0.947-0.157-1.256zm-2.846-2.221c-0.394-0.308-0.967-0.261-1.275 0.133-0.309 0.394-0.218 0.971 0.177 1.28 0.394 0.308 0.947 0.237 1.255-0.157 0.309-0.395 0.238-0.948-0.157-1.256zm-2.821-2.242c-0.394-0.308-0.992-0.241-1.3 0.153-0.308 0.395-0.217 0.972 0.177 1.28s0.948 0.237 1.256-0.157 0.261-0.968-0.133-1.276zm10.249 13.756c-0.395-0.308-0.948-0.237-1.256 0.157-0.28 0.358-0.206 0.86 0.097 1.184l1.292-1.085c-0.055-0.083-0.052-0.192-0.133-0.256zm-2.826-2.197c-0.394-0.309-0.967-0.262-1.276 0.133-0.308 0.394-0.241 0.991 0.154 1.299 0.394 0.309 0.971 0.218 1.279-0.177 0.308-0.394 0.238-0.947-0.157-1.255zm-2.845-2.222c-0.395-0.308-0.968-0.261-1.276 0.133s-0.241 0.992 0.153 1.3 0.971 0.217 1.28-0.177c0.308-0.394 0.237-0.948-0.157-1.256zm-2.846-2.221c-0.394-0.309-0.967-0.262-1.276 0.133-0.308 0.394-0.241 0.991 0.153 1.299 0.395 0.309 0.972 0.218 1.28-0.177 0.308-0.394 0.238-0.947-0.157-1.255zm-2.845-2.222c-0.395-0.308-0.968-0.261-1.276 0.133s-0.217 0.971 0.177 1.28c0.394 0.308 0.947 0.237 1.256-0.157 0.308-0.395 0.237-0.948-0.157-1.256zm-2.846-2.222c-0.394-0.308-0.967-0.261-1.276 0.134-0.308 0.394-0.217 0.971 0.177 1.279 0.395 0.308 0.948 0.238 1.256-0.157 0.308-0.394 0.237-0.947-0.157-1.256zm10.024 13.537c-0.394-0.308-0.991-0.241-1.3 0.153-0.308 0.395-0.217 0.972 0.177 1.28 0.079 0.061 0.173 0.035 0.261 0.067 0.254 0.027 0.497 0.064 0.668-0.031 0.112-0.058 0.243-0.086 0.327-0.193 0.308-0.394 0.261-0.967-0.133-1.276zm-2.845-2.221c-0.395-0.308-0.992-0.241-1.3 0.153-0.309 0.394-0.217 0.971 0.177 1.28 0.394 0.308 0.947 0.237 1.256-0.157 0.308-0.395 0.261-0.968-0.133-1.276zm-2.846-2.222c-0.394-0.308-0.968-0.261-1.276 0.133-0.308 0.395-0.241 0.992 0.153 1.3 0.395 0.308 0.972 0.217 1.28-0.177s0.237-0.948-0.157-1.256zm-2.846-2.221c-0.385-0.302-0.939-0.258-1.251 0.113 0.363 0.494 0.525 0.908 0.941 1.412 0.173-0.056 0.348-0.117 0.467-0.27 0.309-0.394 0.238-0.947-0.157-1.255z" fill="#bd7a62"/>
      <path id="rect22339" d="m49.833 23.074c-0.416-0.091-0.802-0.149-1.025 0.038l-20.101 16.885c-1.067 0.896 0.782 4.852 4.147 8.858 2.757 3.282 5.577 5.448 7.119 5.667-1.627-0.677-4.043-2.683-6.402-5.491-3.364-4.005-5.192-7.936-4.125-8.832l20.387-17.125z" fill="#a76c58"/>
      <path id="path23102" d="m41.229 54.494c0.415 0.091 0.802 0.149 1.025-0.038l20.1-16.885c1.068-0.896-0.782-4.852-4.146-8.857-2.757-3.283-5.577-5.449-7.12-5.668 1.627 0.677 4.044 2.684 6.402 5.491 3.365 4.005 5.193 7.936 4.125 8.832l-20.386 17.125z" fill="#d7a08e"/>
    </g>
  </g>
  <metadata>
    <rdf:RDF>
      <cc:Work>
        <dc:format>image/svg+xml</dc:format>
        <dc:type rdf:resource="http://purl.org/dc/dcmitype/StillImage"/>
        <cc:license rdf:resource="http://creativecommons.org/licenses/publicdomain/"/>
        <dc:publisher>
          <cc:Agent rdf:about="http://openclipart.org/">
            <dc:title>Openclipart</dc:title>
          </cc:Agent>
        </dc:publisher>
        <dc:title>pansement</dc:title>
        <dc:date>2008-05-26T12:05:07</dc:date>
        <dc:description>bandage, bandage, clip art, clipart, health, health, image, medecine, medecine, media, png, public domain, svg, </dc:description>
        <dc:source>http://openclipart.org/detail/17041/pansement-by-jean_victor_balin</dc:source>
        <dc:creator>
          <cc:Agent>
            <dc:title>jean_victor_balin</dc:title>
          </cc:Agent>
        </dc:creator>
        <dc:subject>
          <rdf:Bag>
            <rdf:li>bandage</rdf:li>
            <rdf:li>clip art</rdf:li>
            <rdf:li>clipart</rdf:li>
            <rdf:li>health</rdf:li>
            <rdf:li>image</rdf:li>
            <rdf:li>medecine</rdf:li>
            <rdf:li>media</rdf:li>
            <rdf:li>png</rdf:li>
            <rdf:li>public domain</rdf:li>
            <rdf:li>svg</rdf:li>
          </rdf:Bag>
        </dc:subject>
      </cc:Work>
      <cc:License rdf:about="http://creativecommons.org/licenses/publicdomain/">
        <cc:permits rdf:resource="http://creativecommons.org/ns#Reproduction"/>
        <cc:permits rdf:resource="http://creativecommons.org/ns#Distribution"/>
        <cc:permits rdf:resource="http://creativecommons.org/ns#DerivativeWorks"/>
      </cc:License>
    </rdf:RDF>
  </metadata>
</svg>
